HIERARCHY
ROOT Hips
{
	OFFSET	0.00	0.00	0.00
	CHANNELS 6 Xposition Yposition Zposition Zrotation Xrotation Yrotation
	JOINT LeftUpperLeg
	{
		OFFSET	 0.100000	-0.066564	-0.000554
		CHANNELS 3 Zrotation Xrotation Yrotation
		JOINT LeftLowerLeg
		{
			OFFSET	 0.002447	-0.463436	-0.005172
			CHANNELS 3 Zrotation Xrotation Yrotation
			JOINT LeftFoot
			{
				OFFSET	-0.002447	-0.420480	-0.020576
				CHANNELS 3 Zrotation Xrotation Yrotation
				JOINT LeftToes
				{
					OFFSET	 0.003734	-0.104922	 0.126407
					CHANNELS 3 Zrotation Xrotation Yrotation
					End Site
					{
						OFFSET	 0.000000	 0.000000	 0.059955
					}
				}
			}
		}
	}
	JOINT RightUpperLeg
	{
		OFFSET	-0.100000	-0.066564	-0.000554
		CHANNELS 3 Zrotation Xrotation Yrotation
		JOINT RightLowerLeg
		{
			OFFSET	-0.002447	-0.463436	-0.005146
			CHANNELS 3 Zrotation Xrotation Yrotation
			JOINT RightFoot
			{
				OFFSET	 0.002447	-0.420479	-0.020602
				CHANNELS 3 Zrotation Xrotation Yrotation
				JOINT RightToes
				{
					OFFSET	-0.003734	-0.104922	 0.126407
					CHANNELS 3 Zrotation Xrotation Yrotation
					End Site
					{
						OFFSET	-0.000000	 0.000000	 0.059955
					}
				}
			}
		}
	}
	JOINT Spine
	{
		OFFSET	 0.000000	 0.099235	-0.012273
		CHANNELS 3 Zrotation Xrotation Yrotation
		JOINT Chest
		{
			OFFSET	-0.000001	 0.116455	-0.014223
			CHANNELS 3 Zrotation Xrotation Yrotation
			JOINT UpperChest
			{
				OFFSET	 0.000001	 0.133602	-0.016265
				CHANNELS 3 Zrotation Xrotation Yrotation
				JOINT LeftShoulder
				{
					OFFSET	 0.061058	 0.091105	 0.007056
					CHANNELS 3 Zrotation Xrotation Yrotation
					JOINT LeftUpperArm
					{
						OFFSET	 0.133942	-0.002659	-0.026009
						CHANNELS 3 Zrotation Xrotation Yrotation
						JOINT LeftLowerArm
						{
							OFFSET	 0.274047	 0.000000	 0.000000
							CHANNELS 3 Zrotation Xrotation Yrotation
							JOINT LeftHand
							{
								OFFSET	 0.276145	 0.000000	 0.000000
								CHANNELS 3 Zrotation Xrotation Yrotation
								End Site
								{
									OFFSET	 0.165687	 0.000000	 0.000000
								}
							}
						}
					}
				}
				JOINT Neck
				{
					OFFSET	 0.000000	 0.150325	 0.007929
					CHANNELS 3 Zrotation Xrotation Yrotation
					JOINT Head
					{
						OFFSET	 0.000000	 0.103218	 0.031424
						CHANNELS 3 Zrotation Xrotation Yrotation
						End Site
						{
							OFFSET	 0.000000	 0.061931	 0.018855
						}
					}
				}
				JOINT RightShoulder
				{
					OFFSET	-0.061057	 0.091105	 0.007056
					CHANNELS 3 Zrotation Xrotation Yrotation
					JOINT RightUpperArm
					{
						OFFSET	-0.133943	-0.002660	-0.026009
						CHANNELS 3 Zrotation Xrotation Yrotation
						JOINT RightLowerArm
						{
							OFFSET	-0.274047	 0.000000	 0.000000
							CHANNELS 3 Zrotation Xrotation Yrotation
							JOINT RightHand
							{
								OFFSET	-0.276145	 0.000000	 0.000000
								CHANNELS 3 Zrotation Xrotation Yrotation
								End Site
								{
									OFFSET	-0.165687	 0.000000	 0.000000
								}
							}
						}
					}
				}
			}
		}
	}
}
MOTION
Frames:    12
Frame Time: 0.03333334
-0.118920	 1.044540	-0.702040	-0.832919	 4.018507	 12.094830	 5.280212	 5.929215	 12.595460	 0.001319	 0.328967	-0.000303	-6.011449	-7.933030	 13.347380	-0.000291	 0.360908	 0.261554	-2.759290	 7.959645	-34.634230	-0.000016	 0.075562	-0.000102	 2.406239	-7.619475	-8.509912	 0.000224	 0.291445	 0.000241	 0.767649	-0.866349	-1.589999	-0.000000	 0.000000	 0.000000	 1.513902	-1.756991	-3.173512	-2.917054	-1.141730	 18.593310	-72.354420	 4.251684	-7.346057	-12.536130	 22.521360	-24.598880	 42.501240	 24.171460	-25.958890	 3.633206	-2.188282	 5.088374	 3.629711	-2.211434	 5.339029	-1.074411	 5.090753	-19.339240	 74.101280	-1.170458	 39.726090	 12.880530	 17.671220	 72.901790	-40.655830	-9.692928	 26.729280
-0.114530	 1.044600	-0.702890	-0.530230	 4.124854	 10.473980	 4.482658	 6.289966	 13.918740	-0.000733	 0.092562	-0.000659	-5.872319	-8.127262	 13.671880	-0.000161	 0.359473	 0.236159	-3.582218	 7.684666	-33.732170	 0.001049	 0.079994	 0.000460	 2.879923	-7.370811	-7.854537	-0.000330	 0.295499	 0.000893	 0.755456	-0.823215	-1.631201	-0.000000	 0.000000	 0.000000	 1.491472	-1.671036	-3.257109	-2.664558	-1.057858	 18.476900	-72.114630	 4.228659	-8.121549	-12.565850	 23.158790	-25.125000	 41.867970	 26.570680	-26.470090	 3.741935	-2.101694	 6.109001	 3.772068	-2.181111	 6.198468	-0.838123	 5.046138	-19.296830	 74.200800	-1.124381	 38.558030	 13.755410	 18.500090	 71.523050	-40.561550	-10.123520	 26.385220
-0.108310	 1.044620	-0.704160	-0.192705	 4.411768	 8.390924	 3.458042	 6.381585	 15.350060	 0.000402	 0.077211	 0.000305	-5.284269	-8.384943	 14.334410	-0.000558	 0.360132	 0.261304	-4.618618	 7.107018	-33.457780	 0.000869	 0.079377	 0.000010	 3.514066	-6.947070	-6.206130	-0.000148	 0.299048	 0.000566	 0.737506	-0.823718	-1.680395	-0.000000	 0.000000	 0.000000	 1.451792	-1.671413	-3.357376	-2.278235	-1.223460	 18.115550	-71.761020	 4.623671	-8.749854	-12.825160	 23.559130	-25.436860	 42.331940	 27.445140	-27.763620	 3.919099	-2.334136	 7.251935	 3.962921	-2.324964	 7.351608	-0.398377	 4.678093	-19.359010	 74.220490	-0.559543	 36.713840	 14.794250	 18.889360	 69.600430	-40.480290	-11.189380	 25.066590
-0.108310	 1.044620	-0.704160	-0.192705	 4.411768	 8.390924	 3.458042	 6.381585	 15.350060	 0.000402	 0.077211	 0.000305	-5.284269	-8.384943	 14.334410	-0.000558	 0.360132	 0.261304	-4.618618	 7.107018	-33.457780	 0.000869	 0.079377	 0.000010	 3.514066	-6.947070	-6.206130	-0.000148	 0.299048	 0.000566	 0.737506	-0.823718	-1.680395	-0.000000	 0.000000	 0.000000	 1.451792	-1.671413	-3.357376	-2.278235	-1.223460	 18.115550	-71.761020	 4.623671	-8.749854	-12.825160	 23.559130	-25.436860	 42.331940	 27.445140	-27.763620	 3.919099	-2.334136	 7.251935	 3.962921	-2.324964	 7.351608	-0.398377	 4.678093	-19.359010	 74.220490	-0.559543	 36.713840	 14.794250	 18.889360	 69.600430	-40.480290	-11.189380	 25.066590
-0.103250	 1.044580	-0.705110	 0.050104	 4.692969	 6.984429	 2.692838	 6.313270	 16.436210	 0.000220	 0.077105	-0.000461	-4.810371	-8.465451	 14.667600	 0.000144	 0.362167	 0.287156	-5.356577	 6.588378	-33.068550	-0.000306	 0.074312	-0.000355	 3.737672	-6.638903	-5.394657	 0.000138	 0.341405	 0.000712	 0.730414	-0.864108	-1.743745	-0.000000	 0.000000	 0.000000	 1.434571	-1.752302	-3.480475	-1.987311	-1.047528	 17.866020	-71.670550	 5.241593	-8.821695	-12.371290	 23.877970	-26.267470	 42.134050	 27.820780	-28.017570	 4.008354	-2.522997	 8.021406	 4.025522	-2.434281	 8.138380	-0.190312	 4.069735	-18.923040	 75.043270	-0.202713	 35.178590	 14.797890	 18.902160	 67.718780	-40.375760	-12.427100	 24.681130
-0.097370	 1.044620	-0.705740	 0.723878	 4.895502	 5.573181	 1.475400	 6.348738	 17.664350	-0.000569	 0.078158	 0.000598	-4.357572	-8.590011	 14.781690	 0.000280	 0.362569	 0.308029	-6.552718	 6.185534	-32.339190	 0.000024	 0.088689	 0.000171	 3.869731	-6.360408	-4.954032	 0.000837	 0.429517	 0.000288	 0.593997	-0.886778	-1.764403	-0.000000	 0.000000	 0.000000	 1.163567	-1.792630	-3.524912	-1.950408	-0.687099	 17.787090	-71.555470	 5.743009	-9.373736	-12.373860	 23.544620	-26.937970	 41.387550	 28.939410	-27.821080	 3.728941	-2.594650	 8.810132	 3.998984	-2.537297	 8.842033	-0.213322	 3.971804	-18.386680	 76.004260	 0.166229	 34.127720	 15.403230	 17.874540	 65.834210	-40.146920	-13.685180	 23.946500
-0.089040	 1.044660	-0.706610	 1.390722	 4.875053	 4.485386	 0.164556	 6.524252	 18.230840	 0.001102	 0.083579	 0.000189	-3.857400	-8.890253	 15.280500	 0.000373	 0.362270	 0.298490	-7.886033	 5.970483	-31.987830	 0.000501	 0.239221	-0.000527	 4.119080	-6.083579	-4.451599	-0.000836	 0.530633	-0.000453	 0.484904	-0.764235	-1.917389	-0.000000	 0.000000	 0.000000	 0.944135	-1.547314	-3.835857	-1.636394	 0.384338	 17.115950	-71.413110	 6.459368	-9.450317	-12.513510	 24.870200	-27.226820	 41.629650	 29.147330	-27.455640	 3.683220	-2.666418	 9.294283	 3.932476	-2.876605	 9.613613	 0.271962	 4.074072	-18.127880	 76.677690	 0.459662	 32.521960	 16.764210	 16.250750	 63.184950	-40.994880	-17.222040	 21.418420
-0.081090	 1.044470	-0.708250	 1.756340	 5.051585	 3.815576	-0.796150	 6.357032	 17.570780	-0.000141	 0.082000	 0.000572	-2.970335	-8.981083	 16.551080	-0.000336	 0.364201	 0.331872	-9.138877	 5.094518	-31.743030	 0.003839	 1.438598	 0.000601	 4.229065	-6.343031	-4.207887	-0.000142	 0.634179	-0.000285	 0.450388	-0.680907	-1.947630	-0.000000	 0.000000	 0.000000	 0.878028	-1.376232	-3.899350	-1.275434	 0.758852	 16.940360	-71.360750	 7.073448	-9.733679	-12.000940	 25.842900	-28.366700	 41.154110	 31.072240	-26.437280	 3.782145	-3.030902	 9.996881	 3.864261	-3.193018	 10.067910	 0.664629	 3.215013	-16.868240	 78.249410	-0.173041	 30.383350	 19.248600	 13.737600	 59.650340	-43.605180	-22.562850	 16.696610
-0.081090	 1.044470	-0.708250	 1.756340	 5.051585	 3.815576	-0.796150	 6.357032	 17.570780	-0.000141	 0.082000	 0.000572	-2.970335	-8.981083	 16.551080	-0.000336	 0.364201	 0.331872	-9.138877	 5.094518	-31.743030	 0.003839	 1.438598	 0.000601	 4.229065	-6.343031	-4.207887	-0.000142	 0.634179	-0.000285	 0.450388	-0.680907	-1.947630	-0.000000	 0.000000	 0.000000	 0.878028	-1.376232	-3.899350	-1.275434	 0.758852	 16.940360	-71.360750	 7.073448	-9.733679	-12.000940	 25.842900	-28.366700	 41.154110	 31.072240	-26.437280	 3.782145	-3.030902	 9.996881	 3.864261	-3.193018	 10.067910	 0.664629	 3.215013	-16.868240	 78.249410	-0.173041	 30.383350	 19.248600	 13.737600	 59.650340	-43.605180	-22.562850	 16.696610
-0.081090	 1.044470	-0.708250	 1.756340	 5.051585	 3.815576	-0.796150	 6.357032	 17.570780	-0.000141	 0.082000	 0.000572	-2.970335	-8.981083	 16.551080	-0.000336	 0.364201	 0.331872	-9.138877	 5.094518	-31.743030	 0.003839	 1.438598	 0.000601	 4.229065	-6.343031	-4.207887	-0.000142	 0.634179	-0.000285	 0.450388	-0.680907	-1.947630	-0.000000	 0.000000	 0.000000	 0.878028	-1.376232	-3.899350	-1.275434	 0.758852	 16.940360	-71.360750	 7.073448	-9.733679	-12.000940	 25.842900	-28.366700	 41.154110	 31.072240	-26.437280	 3.782145	-3.030902	 9.996881	 3.864261	-3.193018	 10.067910	 0.664629	 3.215013	-16.868240	 78.249410	-0.173041	 30.383350	 19.248600	 13.737600	 59.650340	-43.605180	-22.562850	 16.696610
-0.081090	 1.044470	-0.708250	 1.756340	 5.051585	 3.815576	-0.796150	 6.357032	 17.570780	-0.000141	 0.082000	 0.000572	-2.970335	-8.981083	 16.551080	-0.000336	 0.364201	 0.331872	-9.138877	 5.094518	-31.743030	 0.003839	 1.438598	 0.000601	 4.229065	-6.343031	-4.207887	-0.000142	 0.634179	-0.000285	 0.450388	-0.680907	-1.947630	-0.000000	 0.000000	 0.000000	 0.878028	-1.376232	-3.899350	-1.275434	 0.758852	 16.940360	-71.360750	 7.073448	-9.733679	-12.000940	 25.842900	-28.366700	 41.154110	 31.072240	-26.437280	 3.782145	-3.030902	 9.996881	 3.864261	-3.193018	 10.067910	 0.664629	 3.215013	-16.868240	 78.249410	-0.173041	 30.383350	 19.248600	 13.737600	 59.650340	-43.605180	-22.562850	 16.696610
-0.081090	 1.044470	-0.708250	 1.756340	 5.051585	 3.815576	-0.796150	 6.357032	 17.570780	-0.000141	 0.082000	 0.000572	-2.970335	-8.981083	 16.551080	-0.000336	 0.364201	 0.331872	-9.138877	 5.094518	-31.743030	 0.003839	 1.438598	 0.000601	 4.229065	-6.343031	-4.207887	-0.000142	 0.634179	-0.000285	 0.450388	-0.680907	-1.947630	-0.000000	 0.000000	 0.000000	 0.878028	-1.376232	-3.899350	-1.275434	 0.758852	 16.940360	-71.360750	 7.073448	-9.733679	-12.000940	 25.842900	-28.366700	 41.154110	 31.072240	-26.437280	 3.782145	-3.030902	 9.996881	 3.864261	-3.193018	 10.067910	 0.664629	 3.215013	-16.868240	 78.249410	-0.173041	 30.383350	 19.248600	 13.737600	 59.650340	-43.605180	-22.562850	 16.696610
